<svg width="255" height="43" viewBox="0 0 255 43" fill="none" xmlns="http://www.w3.org/2000/svg">
<path d="M10.59 26.575V18.7H33.045C33.945 18.7 34.695 18.565 35.295 18.295C35.925 17.995 36.24 17.38 36.24 16.45C36.24 15.49 35.925 14.875 35.295 14.605C34.695 14.335 33.945 14.2 33.045 14.2H11.31V34H0.0600002V5.2H31.29C33.54 5.2 35.64 5.365 37.59 5.695C39.57 5.995 41.295 6.55 42.765 7.36C44.235 8.17 45.39 9.31 46.23 10.78C47.07 12.25 47.49 14.14 47.49 16.45C47.49 18.76 47.07 20.59 46.23 21.94C45.39 23.29 44.235 24.295 42.765 24.955C41.295 25.615 39.57 26.05 37.59 26.26C35.64 26.47 33.54 26.575 31.29 26.575H10.59ZM51.9791 11.95H62.7791V34H51.9791V11.95ZM74.3891 20.275C72.4391 20.275 70.6541 20.455 69.0341 20.815C67.4141 21.175 66.0341 21.61 64.8941 22.12C63.7541 22.6 62.8991 23.08 62.3291 23.56L62.2391 21.4C62.3291 20.77 62.5691 20.035 62.9591 19.195C63.3491 18.325 63.8741 17.44 64.5341 16.54C65.1941 15.61 66.0041 14.755 66.9641 13.975C67.9241 13.165 69.0191 12.52 70.2491 12.04C71.5091 11.53 72.8891 11.275 74.3891 11.275V20.275ZM98.2605 34.675C93.4905 34.675 89.5155 34.285 86.3355 33.505C83.1855 32.725 80.8155 31.48 79.2255 29.77C77.6655 28.06 76.8855 25.81 76.8855 23.02C76.8855 20.23 77.6655 17.98 79.2255 16.27C80.8155 14.53 83.1855 13.27 86.3355 12.49C89.5155 11.68 93.4905 11.275 98.2605 11.275C103.001 11.275 106.931 11.68 110.051 12.49C113.201 13.27 115.556 14.53 117.116 16.27C118.676 17.98 119.456 20.23 119.456 23.02C119.456 25.81 118.676 28.06 117.116 29.77C115.556 31.48 113.201 32.725 110.051 33.505C106.931 34.285 103.001 34.675 98.2605 34.675ZM98.2605 28.15C100.481 28.15 102.341 27.97 103.841 27.61C105.341 27.22 106.481 26.65 107.261 25.9C108.041 25.12 108.431 24.16 108.431 23.02C108.431 21.88 108.041 20.92 107.261 20.14C106.511 19.36 105.386 18.775 103.886 18.385C102.386 17.995 100.511 17.8 98.2605 17.8C96.0405 17.8 94.1505 17.995 92.5905 18.385C91.0605 18.775 89.8905 19.36 89.0805 20.14C88.3005 20.89 87.9105 21.85 87.9105 23.02C87.9105 24.16 88.3005 25.12 89.0805 25.9C89.8605 26.65 91.0155 27.22 92.5455 27.61C94.1055 27.97 96.0105 28.15 98.2605 28.15ZM123.804 11.95H134.604V43H123.804V11.95ZM134.919 0.384998V7.135H123.489V0.384998H134.919ZM169.85 26.08H180.47C180.2 27.82 179.33 29.335 177.86 30.625C176.42 31.915 174.305 32.92 171.515 33.64C168.755 34.33 165.23 34.675 160.94 34.675C156.41 34.675 152.495 34.315 149.195 33.595C145.925 32.875 143.405 31.66 141.635 29.95C139.865 28.24 138.98 25.93 138.98 23.02C138.98 20.14 139.835 17.845 141.545 16.135C143.285 14.395 145.79 13.15 149.06 12.4C152.33 11.65 156.29 11.275 160.94 11.275C165.5 11.275 169.235 11.68 172.145 12.49C175.055 13.3 177.2 14.62 178.58 16.45C179.96 18.25 180.62 20.695 180.56 23.785H149.96C150.11 24.565 150.53 25.285 151.22 25.945C151.94 26.605 153.035 27.145 154.505 27.565C156.005 27.955 158 28.15 160.49 28.15C163.07 28.15 165.185 27.97 166.835 27.61C168.515 27.25 169.52 26.74 169.85 26.08ZM160.49 17.8C157.31 17.8 154.88 18.145 153.2 18.835C151.55 19.525 150.575 20.215 150.275 20.905H170.075C169.865 20.125 169.025 19.42 167.555 18.79C166.085 18.13 163.73 17.8 160.49 17.8ZM183.042 11.95H209.502V18.7H183.042V11.95ZM190.872 5.2H201.672V34H190.872V5.2ZM233.348 34.675C228.578 34.675 224.603 34.285 221.423 33.505C218.273 32.725 215.903 31.48 214.313 29.77C212.753 28.06 211.973 25.81 211.973 23.02C211.973 20.23 212.753 17.98 214.313 16.27C215.903 14.53 218.273 13.27 221.423 12.49C224.603 11.68 228.578 11.275 233.348 11.275C238.088 11.275 242.018 11.68 245.138 12.49C248.288 13.27 250.643 14.53 252.203 16.27C253.763 17.98 254.543 20.23 254.543 23.02C254.543 25.81 253.763 28.06 252.203 29.77C250.643 31.48 248.288 32.725 245.138 33.505C242.018 34.285 238.088 34.675 233.348 34.675ZM233.348 28.15C235.568 28.15 237.428 27.97 238.928 27.61C240.428 27.22 241.568 26.65 242.348 25.9C243.128 25.12 243.518 24.16 243.518 23.02C243.518 21.88 243.128 20.92 242.348 20.14C241.598 19.36 240.473 18.775 238.973 18.385C237.473 17.995 235.598 17.8 233.348 17.8C231.128 17.8 229.238 17.995 227.678 18.385C226.148 18.775 224.978 19.36 224.168 20.14C223.388 20.89 222.998 21.85 222.998 23.02C222.998 24.16 223.388 25.12 224.168 25.9C224.948 26.65 226.103 27.22 227.633 27.61C229.193 27.97 231.098 28.15 233.348 28.15Z" fill="black"/>
</svg>
