<svg width="144" height="17" viewBox="0 0 144 17" fill="none" xmlns="http://www.w3.org/2000/svg">
<path d="M0.851321 11.9119V10.8977L5.32575 3.81818H6.06155V5.3892H5.56439L2.18371 10.7386V10.8182H8.20928V11.9119H0.851321ZM5.64393 14V11.6037V11.1314V3.81818H6.81723V14H5.64393ZM10.4689 14.0795C10.2236 14.0795 10.0131 13.9917 9.83747 13.8161C9.66181 13.6404 9.57398 13.4299 9.57398 13.1847C9.57398 12.9394 9.66181 12.7289 9.83747 12.5533C10.0131 12.3776 10.2236 12.2898 10.4689 12.2898C10.7141 12.2898 10.9246 12.3776 11.1003 12.5533C11.2759 12.7289 11.3638 12.9394 11.3638 13.1847C11.3638 13.3471 11.3223 13.4962 11.2395 13.6321C11.1599 13.768 11.0522 13.8774 10.9163 13.9602C10.7837 14.0398 10.6346 14.0795 10.4689 14.0795ZM16.4261 14.1392C15.8427 14.1392 15.3174 14.0232 14.8501 13.7912C14.3827 13.5592 14.0082 13.241 13.7265 12.8366C13.4448 12.4323 13.2907 11.9716 13.2641 11.4545H14.4573C14.5037 11.9152 14.7125 12.2964 15.0837 12.598C15.4583 12.8963 15.9057 13.0455 16.4261 13.0455C16.8437 13.0455 17.2149 12.9477 17.5397 12.7521C17.8678 12.5566 18.1247 12.2881 18.3103 11.9467C18.4992 11.602 18.5937 11.2126 18.5937 10.7784C18.5937 10.3343 18.4959 9.93821 18.3004 9.5902C18.1081 9.23887 17.843 8.96212 17.5049 8.75994C17.1668 8.55776 16.7807 8.45502 16.3465 8.4517C16.035 8.44839 15.7151 8.49645 15.387 8.59588C15.0589 8.692 14.7888 8.81629 14.5766 8.96875L13.4232 8.82955L14.0397 3.81818H19.3295V4.91193H15.0738L14.7158 7.91477H14.7755C14.9843 7.74905 15.2461 7.61151 15.561 7.50213C15.8759 7.39276 16.204 7.33807 16.5454 7.33807C17.1685 7.33807 17.7237 7.48722 18.2109 7.78551C18.7014 8.08049 19.0859 8.48485 19.3643 8.99858C19.646 9.51231 19.7869 10.099 19.7869 10.7585C19.7869 11.4081 19.641 11.9882 19.3494 12.4986C19.061 13.0057 18.6633 13.4067 18.1562 13.7017C17.6491 13.9934 17.0724 14.1392 16.4261 14.1392Z" fill="black"/>
<path d="M45.2035 7.32255L41.8697 10.1993L42.8854 14.5015C42.9414 14.735 42.927 14.9799 42.8439 15.2053C42.7608 15.4306 42.6128 15.6263 42.4186 15.7676C42.2244 15.9089 41.9926 15.9894 41.7526 15.999C41.5127 16.0087 41.2752 15.9469 41.0703 15.8217L37.3289 13.5191L33.5854 15.8217C33.3805 15.9462 33.1433 16.0073 32.9037 15.9974C32.6642 15.9874 32.4329 15.9067 32.2391 15.7656C32.0453 15.6244 31.8975 15.4291 31.8145 15.2041C31.7315 14.9792 31.7168 14.7347 31.7725 14.5015L32.7919 10.1993L29.458 7.32255C29.2767 7.16587 29.1456 6.95925 29.0811 6.72849C29.0165 6.49774 29.0214 6.25308 29.095 6.02506C29.1687 5.79705 29.3079 5.59579 29.4953 5.44642C29.6826 5.29705 29.9098 5.20618 30.1485 5.18517L34.5196 4.83252L36.2058 0.751869C36.2971 0.529476 36.4524 0.339247 36.6521 0.205366C36.8517 0.0714847 37.0867 0 37.3271 0C37.5675 0 37.8024 0.0714847 38.0021 0.205366C38.2018 0.339247 38.3571 0.529476 38.4484 0.751869L40.1338 4.83252L44.5049 5.18517C44.7441 5.2054 44.9719 5.29576 45.16 5.44492C45.348 5.59409 45.4879 5.79543 45.562 6.02372C45.6361 6.25201 45.6412 6.4971 45.5766 6.72827C45.5121 6.95945 45.3808 7.16643 45.1991 7.32329L45.2035 7.32255Z" fill="#FFB344"/>
<path d="M69.7891 7.32255L66.4553 10.1993L67.471 14.5015C67.527 14.735 67.5126 14.9799 67.4295 15.2053C67.3464 15.4306 67.1984 15.6263 67.0042 15.7676C66.81 15.9089 66.5782 15.9894 66.3382 15.999C66.0983 16.0087 65.8608 15.9469 65.6559 15.8217L61.9145 13.5191L58.171 15.8217C57.9661 15.9462 57.7289 16.0073 57.4893 15.9974C57.2498 15.9874 57.0185 15.9067 56.8247 15.7656C56.6309 15.6244 56.4831 15.4291 56.4001 15.2041C56.3171 14.9792 56.3025 14.7347 56.3581 14.5015L57.3775 10.1993L54.0436 7.32255C53.8624 7.16587 53.7312 6.95925 53.6667 6.72849C53.6021 6.49774 53.607 6.25308 53.6806 6.02506C53.7543 5.79705 53.8935 5.59579 54.0809 5.44642C54.2682 5.29705 54.4954 5.20618 54.7341 5.18517L59.1052 4.83252L60.7914 0.751869C60.8827 0.529476 61.038 0.339247 61.2377 0.205366C61.4373 0.0714847 61.6723 0 61.9127 0C62.1531 0 62.388 0.0714847 62.5877 0.205366C62.7874 0.339247 62.9427 0.529476 63.034 0.751869L64.7194 4.83252L69.0905 5.18517C69.3297 5.2054 69.5575 5.29576 69.7456 5.44492C69.9336 5.59409 70.0735 5.79543 70.1476 6.02372C70.2217 6.25201 70.2268 6.4971 70.1623 6.72827C70.0977 6.95945 69.9664 7.16643 69.7847 7.32329L69.7891 7.32255Z" fill="#FFB344"/>
<path d="M94.3747 7.32255L91.0409 10.1993L92.0566 14.5015C92.1126 14.735 92.0982 14.9799 92.0151 15.2053C91.932 15.4306 91.784 15.6263 91.5898 15.7676C91.3956 15.9089 91.1638 15.9894 90.9238 15.999C90.6839 16.0087 90.4464 15.9469 90.2415 15.8217L86.5001 13.5191L82.7566 15.8217C82.5517 15.9462 82.3145 16.0073 82.0749 15.9974C81.8354 15.9874 81.6041 15.9067 81.4103 15.7656C81.2165 15.6244 81.0687 15.4291 80.9857 15.2041C80.9027 14.9792 80.8881 14.7347 80.9437 14.5015L81.9631 10.1993L78.6292 7.32255C78.448 7.16587 78.3168 6.95925 78.2523 6.72849C78.1877 6.49774 78.1926 6.25308 78.2662 6.02506C78.3399 5.79705 78.4791 5.59579 78.6665 5.44642C78.8538 5.29705 79.081 5.20618 79.3197 5.18517L83.6908 4.83252L85.377 0.751869C85.4683 0.529476 85.6236 0.339247 85.8233 0.205366C86.0229 0.0714847 86.2579 0 86.4983 0C86.7387 0 86.9736 0.0714847 87.1733 0.205366C87.373 0.339247 87.5283 0.529476 87.6196 0.751869L89.305 4.83252L93.6761 5.18517C93.9153 5.2054 94.1431 5.29576 94.3312 5.44492C94.5192 5.59409 94.6591 5.79543 94.7332 6.02372C94.8073 6.25201 94.8124 6.4971 94.7479 6.72827C94.6833 6.95945 94.552 7.16643 94.3703 7.32329L94.3747 7.32255Z" fill="#FFB344"/>
<path d="M118.96 7.32255L115.626 10.1993L116.642 14.5015C116.698 14.735 116.684 14.9799 116.601 15.2053C116.518 15.4306 116.37 15.6263 116.175 15.7676C115.981 15.9089 115.749 15.9894 115.509 15.999C115.269 16.0087 115.032 15.9469 114.827 15.8217L111.086 13.5191L107.342 15.8217C107.137 15.9462 106.9 16.0073 106.661 15.9974C106.421 15.9874 106.19 15.9067 105.996 15.7656C105.802 15.6244 105.654 15.4291 105.571 15.2041C105.488 14.9792 105.474 14.7347 105.529 14.5015L106.549 10.1993L103.215 7.32255C103.034 7.16587 102.902 6.95925 102.838 6.72849C102.773 6.49774 102.778 6.25308 102.852 6.02506C102.925 5.79705 103.065 5.59579 103.252 5.44642C103.439 5.29705 103.667 5.20618 103.905 5.18517L108.276 4.83252L109.963 0.751869C110.054 0.529476 110.209 0.339247 110.409 0.205366C110.609 0.0714847 110.843 0 111.084 0C111.324 0 111.559 0.0714847 111.759 0.205366C111.959 0.339247 112.114 0.529476 112.205 0.751869L113.891 4.83252L118.262 5.18517C118.501 5.2054 118.729 5.29576 118.917 5.44492C119.105 5.59409 119.245 5.79543 119.319 6.02372C119.393 6.25201 119.398 6.4971 119.333 6.72827C119.269 6.95945 119.138 7.16643 118.956 7.32329L118.96 7.32255Z" fill="#FFB344"/>
<path d="M143.546 7.32255L140.212 10.1993L141.228 14.5015C141.284 14.735 141.269 14.9799 141.186 15.2053C141.103 15.4306 140.955 15.6263 140.761 15.7676C140.567 15.9089 140.335 15.9894 140.095 15.999C139.855 16.0087 139.618 15.9469 139.413 15.8217L135.671 13.5191L131.928 15.8217C131.723 15.9462 131.486 16.0073 131.246 15.9974C131.007 15.9874 130.775 15.9067 130.581 15.7656C130.388 15.6244 130.24 15.4291 130.157 15.2041C130.074 14.9792 130.059 14.7347 130.115 14.5015L131.134 10.1993L127.8 7.32255C127.619 7.16587 127.488 6.95925 127.423 6.72849C127.359 6.49774 127.364 6.25308 127.437 6.02506C127.511 5.79705 127.65 5.59579 127.838 5.44642C128.025 5.29705 128.252 5.20618 128.491 5.18517L132.862 4.83252L134.548 0.751869C134.639 0.529476 134.795 0.339247 134.994 0.205366C135.194 0.0714847 135.429 0 135.669 0C135.91 0 136.145 0.0714847 136.345 0.205366C136.544 0.339247 136.7 0.529476 136.791 0.751869L138.476 4.83252L142.847 5.18517C143.086 5.2054 143.314 5.29576 143.502 5.44492C143.69 5.59409 143.83 5.79543 143.904 6.02372C143.979 6.25201 143.984 6.4971 143.919 6.72827C143.855 6.95945 143.723 7.16643 143.541 7.32329L143.546 7.32255Z" fill="#FFB344"/>
</svg>
